<?xml version="1.0" standalone="no"?>
<!DOCTYPE svg PUBLIC "-//W3C//DTD SVG 20010904//EN"
 "http://www.w3.org/TR/2001/REC-SVG-20010904/DTD/svg10.dtd">
<svg version="1.0" xmlns="http://www.w3.org/2000/svg"
 width="121.000000pt" height="95.000000pt" viewBox="0 0 121.000000 95.000000"
 preserveAspectRatio="xMidYMid meet">
<metadata>
Created by potrace 1.16, written by Peter Selinger 2001-2019
</metadata>
<g transform="translate(0.000000,95.000000) scale(0.100000,-0.100000)"
fill="#000000" stroke="none">
<path d="M1043 790 c41 -36 49 -78 23 -128 -30 -58 -145 -139 -281 -198 -146
-63 -396 -99 -517 -74 -151 31 -197 89 -148 185 l21 40 -36 -39 c-72 -81 -66
-165 16 -207 54 -27 153 -49 224 -49 73 0 238 23 319 44 33 9 61 14 63 12 16
-16 -337 -126 -403 -126 -34 0 -30 -21 13 -61 74 -70 99 -82 156 -76 105 11
226 62 312 132 30 25 55 41 55 36 0 -21 -98 -115 -169 -162 l-76 -51 62 5
c127 10 252 96 312 215 32 63 56 179 45 214 -5 15 6 33 44 72 62 63 79 110 59
159 -14 33 -58 68 -106 82 -21 6 -19 2 12 -25z"/>
</g>
</svg>
